<?xml version="1.0" encoding="UTF-8"?>
<!DOCTYPE svg PUBLIC "-//W3C//DTD SVG 1.1//EN" "http://www.w3.org/Graphics/SVG/1.1/DTD/svg11.dtd">
<svg xmlns="http://www.w3.org/2000/svg" xml:space="preserve" width="173px" height="64px" version="1.1" style="shape-rendering:geometricPrecision; text-rendering:geometricPrecision; image-rendering:optimizeQuality; fill-rule:evenodd; clip-rule:evenodd"
viewBox="0 0 65.83 24.12"
 xmlns:xlink="http://www.w3.org/1999/xlink">
 <defs>
  <style type="text/css">
   <![CDATA[
    .fil0 {fill:none}
    .fil3 {fill:black}
    .fil4 {fill:#BB1806}
    .fil1 {fill:white}
    .fil2 {fill:white;fill-rule:nonzero}
   ]]>
  </style>
 </defs>
 <g id="Camada_x0020_1">
  <g id="_1105621872">
   <rect class="fil0" width="65.83" height="24.12"/>
   <g>
    <path class="fil1" d="M29.43 2.99c3.74,0 6.77,3.09 6.77,6.89 0,3.81 -3.03,6.89 -6.77,6.89l-6.29 0 0 -13.78c2.1,0 4.2,0 6.29,0zm0 10.67c1.82,-0.36 3.19,-1.91 3.19,-3.78 0,-1.87 -1.37,-3.42 -3.19,-3.78l-2.78 0 0 7.56 2.78 0zm11.82 -4.86c-0.65,0.25 -1.25,0.58 -1.79,0.97 -1.16,0.82 -1.87,1.95 -1.74,3.43 0.05,0.71 0.26,1.39 0.6,1.9 0.88,1.28 2.56,1.84 4.23,1.9 1.46,0.05 2.93,-0.41 4.03,-1.47l1.11 1.24 3.76 0 0 -0.34 -3.27 -3.66 2.86 -2.96 0 -0.47 -2.91 0 -1.55 1.58 -1.55 -1.65c0.75,-0.38 1.38,-0.84 1.87,-1.39 0.7,-0.8 0.94,-1.63 0.82,-2.41 -0.28,-1.81 -1.87,-2.51 -3.5,-2.65 -1.69,-0.14 -2.99,0.21 -3.87,1.11 -0.97,0.98 -1.01,2.21 -0.49,3.27 0.31,0.62 0.79,1.18 1.39,1.6zm3.63 4.66c-0.82,-0.87 -1.63,-1.74 -2.45,-2.61 -0.33,0.18 -0.61,0.39 -0.84,0.62 -0.78,0.79 -0.8,1.62 -0.31,2.18 0.45,0.51 1.01,0.65 1.57,0.65 0.8,0.01 1.59,-0.32 2.03,-0.84zm-1.45 -5.66c-0.24,-0.22 -0.49,-0.44 -0.7,-0.75 -0.62,-0.88 -0.13,-1.99 0.96,-1.97 0.78,0.01 1.28,0.65 1.19,1.3 -0.11,0.74 -0.88,1.07 -1.45,1.42zm10.09 4.9c1.07,0.95 3.74,1.81 5.19,1.46 1.08,-0.27 1.37,-1.45 0.59,-2.12 -0.96,-0.82 -3.38,-0.96 -4.93,-2.08 -1.51,-1.08 -2.21,-2.44 -1.49,-4.42 1.15,-3.19 5.81,-3.04 8.5,-2.22 0.57,0.18 1.1,0.42 1.61,0.71l-1.28 2.51c-0.52,-0.5 -3.18,-1.32 -4.6,-0.89 -0.95,0.29 -1.23,1.22 -0.45,1.88 0.96,0.82 3.58,1.21 5.13,2.33 1.68,1.21 2.17,3.28 0.98,5.13 -1.05,1.64 -3.21,2 -5.05,2.02 -2.09,0.02 -4.03,-0.56 -5.59,-1.58 0.46,-0.91 0.93,-1.82 1.39,-2.73z"/>
    <path class="fil2" d="M23.34 20.04c0,0.05 0.01,0.09 0.03,0.12 0.02,0.03 0.05,0.05 0.09,0.07 0.04,0.02 0.08,0.03 0.13,0.04 0.05,0.02 0.1,0.03 0.15,0.04 0.07,0.01 0.14,0.03 0.2,0.04 0.07,0.02 0.13,0.05 0.18,0.08 0.06,0.04 0.1,0.08 0.13,0.14 0.04,0.06 0.05,0.14 0.05,0.23 0,0.09 -0.02,0.16 -0.05,0.23 -0.04,0.06 -0.09,0.12 -0.16,0.16 -0.07,0.05 -0.15,0.08 -0.25,0.1 -0.09,0.03 -0.19,0.04 -0.31,0.04 -0.07,0 -0.13,0 -0.19,-0.01 -0.05,-0.01 -0.1,-0.02 -0.15,-0.03 -0.04,-0.01 -0.08,-0.02 -0.11,-0.03 -0.03,-0.01 -0.05,-0.02 -0.07,-0.03l0 -0.23c0.08,0.03 0.15,0.05 0.23,0.07 0.08,0.02 0.16,0.03 0.26,0.03 0.07,0 0.14,-0.01 0.2,-0.02 0.05,-0.01 0.1,-0.03 0.15,-0.06 0.04,-0.02 0.07,-0.05 0.1,-0.08 0.02,-0.04 0.03,-0.08 0.03,-0.13 0,-0.04 -0.01,-0.08 -0.03,-0.11 -0.02,-0.03 -0.05,-0.06 -0.09,-0.08 -0.03,-0.02 -0.07,-0.04 -0.12,-0.05 -0.05,-0.01 -0.09,-0.02 -0.14,-0.04 -0.07,-0.01 -0.14,-0.02 -0.21,-0.04 -0.07,-0.02 -0.13,-0.04 -0.19,-0.08 -0.05,-0.03 -0.1,-0.07 -0.13,-0.13 -0.04,-0.05 -0.05,-0.12 -0.05,-0.21 0,-0.09 0.01,-0.17 0.05,-0.23 0.04,-0.07 0.09,-0.12 0.15,-0.16 0.06,-0.05 0.13,-0.08 0.21,-0.1 0.08,-0.02 0.17,-0.03 0.26,-0.03 0.1,0 0.2,0.01 0.29,0.02 0.09,0.02 0.17,0.04 0.24,0.07l0 0.23c-0.07,-0.02 -0.15,-0.05 -0.23,-0.06 -0.08,-0.02 -0.16,-0.03 -0.25,-0.03 -0.07,0 -0.13,0.01 -0.18,0.02 -0.05,0.01 -0.1,0.03 -0.13,0.06 -0.03,0.02 -0.05,0.05 -0.07,0.08 -0.01,0.03 -0.02,0.06 -0.02,0.1zm1.82 1.25l0 -1.7 0.31 0 0 1.7 -0.31 0zm-0.01 -2.09l0 -0.31 0.31 0 0 0.31 -0.31 0zm1.53 0.84c0,0.05 0.01,0.09 0.03,0.12 0.02,0.03 0.05,0.05 0.09,0.07 0.04,0.02 0.08,0.03 0.13,0.04 0.05,0.02 0.1,0.03 0.15,0.04 0.07,0.01 0.14,0.03 0.2,0.04 0.07,0.02 0.13,0.05 0.18,0.08 0.06,0.04 0.1,0.08 0.13,0.14 0.04,0.06 0.05,0.14 0.05,0.23 0,0.09 -0.02,0.16 -0.05,0.23 -0.04,0.06 -0.09,0.12 -0.16,0.16 -0.07,0.05 -0.15,0.08 -0.24,0.1 -0.1,0.03 -0.2,0.04 -0.32,0.04 -0.07,0 -0.13,0 -0.18,-0.01 -0.06,-0.01 -0.11,-0.02 -0.16,-0.03 -0.04,-0.01 -0.07,-0.02 -0.11,-0.03 -0.03,-0.01 -0.05,-0.02 -0.07,-0.03l0 -0.23c0.08,0.03 0.15,0.05 0.23,0.07 0.08,0.02 0.16,0.03 0.26,0.03 0.07,0 0.14,-0.01 0.2,-0.02 0.05,-0.01 0.1,-0.03 0.15,-0.06 0.04,-0.02 0.07,-0.05 0.1,-0.08 0.02,-0.04 0.03,-0.08 0.03,-0.13 0,-0.04 -0.01,-0.08 -0.03,-0.11 -0.02,-0.03 -0.05,-0.06 -0.09,-0.08 -0.03,-0.02 -0.07,-0.04 -0.12,-0.05 -0.05,-0.01 -0.09,-0.02 -0.14,-0.04 -0.07,-0.01 -0.14,-0.02 -0.21,-0.04 -0.07,-0.02 -0.13,-0.04 -0.19,-0.08 -0.05,-0.03 -0.1,-0.07 -0.13,-0.13 -0.04,-0.05 -0.05,-0.12 -0.05,-0.21 0,-0.09 0.01,-0.17 0.05,-0.23 0.04,-0.07 0.09,-0.12 0.15,-0.16 0.06,-0.05 0.13,-0.08 0.21,-0.1 0.08,-0.02 0.17,-0.03 0.26,-0.03 0.1,0 0.2,0.01 0.29,0.02 0.09,0.02 0.17,0.04 0.24,0.07l0 0.23c-0.07,-0.02 -0.15,-0.05 -0.23,-0.06 -0.08,-0.02 -0.16,-0.03 -0.25,-0.03 -0.07,0 -0.13,0.01 -0.18,0.02 -0.05,0.01 -0.1,0.03 -0.13,0.06 -0.03,0.02 -0.05,0.05 -0.07,0.08 -0.01,0.03 -0.02,0.06 -0.02,0.1zm2.8 1.25c-0.02,0.01 -0.06,0.02 -0.12,0.03 -0.05,0 -0.12,0.01 -0.19,0.01 -0.1,0 -0.19,-0.01 -0.26,-0.03 -0.08,-0.03 -0.14,-0.06 -0.19,-0.1 -0.04,-0.04 -0.08,-0.09 -0.11,-0.15 -0.02,-0.06 -0.03,-0.12 -0.03,-0.19l0 -1.03 -0.37 0 0 -0.24 0.37 0 0 -0.46 0.31 0 0 0.46 0.56 0 0 0.24 -0.56 0 0 0.99c0,0.03 0,0.07 0.02,0.1 0.01,0.04 0.03,0.07 0.06,0.09 0.02,0.03 0.06,0.04 0.1,0.06 0.04,0.01 0.1,0.02 0.16,0.02 0.04,0 0.08,0 0.13,-0.01 0.04,-0.01 0.08,-0.01 0.12,-0.02l0 0.23zm1.53 -1.51c-0.08,0 -0.14,0.02 -0.2,0.04 -0.07,0.03 -0.12,0.06 -0.16,0.1 -0.05,0.05 -0.09,0.1 -0.12,0.15 -0.02,0.06 -0.04,0.12 -0.05,0.19l0.97 0c0,-0.07 -0.01,-0.13 -0.03,-0.19 -0.02,-0.05 -0.04,-0.11 -0.08,-0.15 -0.04,-0.04 -0.09,-0.07 -0.14,-0.1 -0.06,-0.02 -0.12,-0.04 -0.19,-0.04zm0.16 1.31c0.1,0 0.19,-0.01 0.28,-0.02 0.08,-0.02 0.17,-0.04 0.25,-0.07l0 0.23c-0.07,0.03 -0.15,0.06 -0.25,0.07 -0.1,0.02 -0.21,0.03 -0.32,0.03 -0.14,0 -0.27,-0.02 -0.39,-0.05 -0.11,-0.03 -0.22,-0.08 -0.3,-0.15 -0.09,-0.07 -0.16,-0.16 -0.21,-0.27 -0.05,-0.11 -0.07,-0.24 -0.07,-0.4 0,-0.15 0.02,-0.29 0.07,-0.4 0.05,-0.11 0.11,-0.21 0.19,-0.28 0.08,-0.08 0.17,-0.14 0.28,-0.18 0.1,-0.03 0.21,-0.05 0.32,-0.05 0.11,0 0.21,0.01 0.3,0.04 0.09,0.04 0.17,0.09 0.24,0.15 0.07,0.07 0.12,0.16 0.16,0.27 0.04,0.1 0.06,0.23 0.06,0.38 0,0.02 0,0.03 0,0.04 0,0.01 0,0.03 -0.01,0.07l-1.3 0c0,0.1 0.01,0.2 0.05,0.27 0.04,0.08 0.09,0.14 0.15,0.18 0.06,0.05 0.14,0.08 0.22,0.11 0.09,0.02 0.18,0.03 0.28,0.03zm3.05 0.2l-0.31 0 0 -1.09c0,-0.08 -0.01,-0.14 -0.03,-0.19 -0.01,-0.05 -0.04,-0.1 -0.07,-0.13 -0.04,-0.03 -0.08,-0.06 -0.12,-0.07 -0.05,-0.02 -0.1,-0.03 -0.16,-0.03 -0.11,0 -0.21,0.03 -0.31,0.08 -0.09,0.06 -0.17,0.13 -0.24,0.22l0 1.21 -0.31 0 0 -1.7 0.24 0 0.06 0.24 0.01 0c0.03,-0.04 0.07,-0.08 0.11,-0.11 0.04,-0.04 0.09,-0.07 0.14,-0.09 0.05,-0.03 0.1,-0.05 0.16,-0.06 0.06,-0.02 0.13,-0.02 0.2,-0.02 0.14,0 0.25,0.03 0.35,0.09 0.09,0.06 0.16,0.14 0.21,0.25l0.01 0c0.09,-0.11 0.18,-0.19 0.29,-0.25 0.11,-0.06 0.23,-0.09 0.38,-0.09 0.06,0 0.13,0.01 0.21,0.02 0.07,0.02 0.14,0.05 0.2,0.09 0.06,0.05 0.12,0.11 0.16,0.19 0.04,0.08 0.06,0.18 0.06,0.3l0 1.14 -0.31 0 0 -1.09c0,-0.08 -0.01,-0.14 -0.03,-0.19 -0.02,-0.05 -0.04,-0.1 -0.08,-0.13 -0.03,-0.03 -0.07,-0.06 -0.12,-0.07 -0.04,-0.02 -0.1,-0.03 -0.15,-0.03 -0.11,0 -0.21,0.03 -0.31,0.08 -0.09,0.06 -0.17,0.13 -0.24,0.22l0 1.21zm3.31 -0.19l0 0c-0.03,0.03 -0.06,0.06 -0.1,0.08 -0.04,0.03 -0.08,0.06 -0.13,0.08 -0.05,0.02 -0.11,0.04 -0.17,0.05 -0.06,0.01 -0.12,0.02 -0.19,0.02 -0.09,0 -0.18,-0.01 -0.25,-0.04 -0.08,-0.02 -0.15,-0.06 -0.2,-0.1 -0.06,-0.05 -0.1,-0.11 -0.13,-0.18 -0.03,-0.06 -0.05,-0.14 -0.05,-0.23 0,-0.08 0.02,-0.16 0.06,-0.22 0.03,-0.07 0.08,-0.12 0.14,-0.17 0.06,-0.05 0.13,-0.08 0.22,-0.11 0.08,-0.02 0.18,-0.04 0.28,-0.04 0.1,0.01 0.19,0.01 0.28,0.03 0.08,0.01 0.15,0.03 0.22,0.05l0.01 0 0 -0.12c0,-0.04 0,-0.08 -0.01,-0.12 -0.01,-0.04 -0.02,-0.07 -0.04,-0.09 -0.03,-0.06 -0.08,-0.11 -0.16,-0.15 -0.08,-0.03 -0.18,-0.05 -0.31,-0.05 -0.09,0 -0.18,0.01 -0.27,0.02 -0.08,0.02 -0.17,0.04 -0.25,0.07l0 -0.23c0.03,-0.02 0.07,-0.03 0.11,-0.04 0.05,-0.02 0.09,-0.03 0.14,-0.04 0.05,0 0.1,-0.01 0.15,-0.02 0.05,0 0.11,0 0.16,0 0.19,0 0.35,0.03 0.47,0.09 0.12,0.06 0.21,0.14 0.26,0.24 0.02,0.04 0.04,0.08 0.05,0.12 0,0.05 0.01,0.1 0.01,0.16l0 1.13 -0.26 0 -0.04 -0.19zm-0.01 -0.56c-0.06,-0.01 -0.13,-0.03 -0.2,-0.04 -0.08,-0.01 -0.17,-0.02 -0.26,-0.02 -0.13,0 -0.24,0.02 -0.31,0.07 -0.08,0.05 -0.11,0.13 -0.11,0.23 0,0.06 0.01,0.1 0.02,0.14 0.02,0.04 0.05,0.07 0.08,0.1 0.03,0.02 0.07,0.04 0.12,0.06 0.04,0.01 0.09,0.02 0.14,0.02 0.07,0 0.13,-0.01 0.18,-0.03 0.06,-0.02 0.11,-0.04 0.16,-0.06 0.04,-0.03 0.08,-0.05 0.11,-0.07 0.03,-0.03 0.05,-0.05 0.07,-0.06l0 -0.34zm1.5 -0.5c0,0.05 0.01,0.09 0.03,0.12 0.02,0.03 0.05,0.05 0.09,0.07 0.03,0.02 0.08,0.03 0.13,0.04 0.05,0.02 0.1,0.03 0.15,0.04 0.07,0.01 0.14,0.03 0.2,0.04 0.06,0.02 0.12,0.05 0.18,0.08 0.05,0.04 0.1,0.08 0.13,0.14 0.03,0.06 0.05,0.14 0.05,0.23 0,0.09 -0.02,0.16 -0.06,0.23 -0.03,0.06 -0.09,0.12 -0.16,0.16 -0.06,0.05 -0.14,0.08 -0.24,0.1 -0.09,0.03 -0.2,0.04 -0.31,0.04 -0.07,0 -0.13,0 -0.19,-0.01 -0.06,-0.01 -0.11,-0.02 -0.15,-0.03 -0.04,-0.01 -0.08,-0.02 -0.11,-0.03 -0.03,-0.01 -0.06,-0.02 -0.08,-0.03l0 -0.23c0.08,0.03 0.16,0.05 0.24,0.07 0.08,0.02 0.16,0.03 0.25,0.03 0.08,0 0.14,-0.01 0.2,-0.02 0.06,-0.01 0.11,-0.03 0.15,-0.06 0.05,-0.02 0.08,-0.05 0.1,-0.08 0.02,-0.04 0.04,-0.08 0.04,-0.13 0,-0.04 -0.01,-0.08 -0.04,-0.11 -0.02,-0.03 -0.04,-0.06 -0.08,-0.08 -0.03,-0.02 -0.08,-0.04 -0.12,-0.05 -0.05,-0.01 -0.1,-0.02 -0.15,-0.04 -0.06,-0.01 -0.13,-0.02 -0.2,-0.04 -0.07,-0.02 -0.13,-0.04 -0.19,-0.08 -0.06,-0.03 -0.1,-0.07 -0.14,-0.13 -0.03,-0.05 -0.05,-0.12 -0.05,-0.21 0,-0.09 0.02,-0.17 0.06,-0.23 0.03,-0.07 0.08,-0.12 0.14,-0.16 0.06,-0.05 0.13,-0.08 0.22,-0.1 0.08,-0.02 0.16,-0.03 0.25,-0.03 0.11,0 0.21,0.01 0.3,0.02 0.09,0.02 0.17,0.04 0.24,0.07l0 0.23c-0.08,-0.02 -0.16,-0.05 -0.24,-0.06 -0.08,-0.02 -0.16,-0.03 -0.24,-0.03 -0.07,0 -0.14,0.01 -0.19,0.02 -0.05,0.01 -0.09,0.03 -0.12,0.06 -0.03,0.02 -0.06,0.05 -0.07,0.08 -0.02,0.03 -0.02,0.06 -0.02,0.1zm3.35 -0.26c-0.07,0 -0.14,0.02 -0.2,0.04 -0.06,0.03 -0.11,0.06 -0.16,0.1 -0.05,0.05 -0.08,0.1 -0.11,0.15 -0.03,0.06 -0.05,0.12 -0.05,0.19l0.97 0c0,-0.07 -0.01,-0.13 -0.03,-0.19 -0.02,-0.05 -0.05,-0.11 -0.09,-0.15 -0.04,-0.04 -0.08,-0.07 -0.14,-0.1 -0.05,-0.02 -0.12,-0.04 -0.19,-0.04zm0.16 1.31c0.1,0 0.2,-0.01 0.28,-0.02 0.09,-0.02 0.17,-0.04 0.25,-0.07l0 0.23c-0.06,0.03 -0.15,0.06 -0.25,0.07 -0.1,0.02 -0.2,0.03 -0.32,0.03 -0.13,0 -0.26,-0.02 -0.38,-0.05 -0.12,-0.03 -0.22,-0.08 -0.31,-0.15 -0.09,-0.07 -0.15,-0.16 -0.2,-0.27 -0.05,-0.11 -0.08,-0.24 -0.08,-0.4 0,-0.15 0.03,-0.29 0.07,-0.4 0.05,-0.11 0.12,-0.21 0.2,-0.28 0.08,-0.08 0.17,-0.14 0.27,-0.18 0.1,-0.03 0.21,-0.05 0.33,-0.05 0.1,0 0.2,0.01 0.29,0.04 0.09,0.04 0.18,0.09 0.24,0.15 0.07,0.07 0.12,0.16 0.16,0.27 0.04,0.1 0.06,0.23 0.06,0.38 0,0.02 0,0.03 0,0.04 0,0.01 0,0.03 0,0.07l-1.31 0c0,0.1 0.02,0.2 0.05,0.27 0.04,0.08 0.09,0.14 0.15,0.18 0.07,0.05 0.14,0.08 0.23,0.11 0.08,0.02 0.17,0.03 0.27,0.03zm1.53 0.2l0 -2.59 0.31 0 0 2.59 -0.31 0zm2.03 -1.51c-0.07,0 -0.14,0.02 -0.2,0.04 -0.06,0.03 -0.11,0.06 -0.16,0.1 -0.05,0.05 -0.08,0.1 -0.11,0.15 -0.03,0.06 -0.05,0.12 -0.05,0.19l0.97 0c0,-0.07 -0.01,-0.13 -0.03,-0.19 -0.02,-0.05 -0.05,-0.11 -0.09,-0.15 -0.04,-0.04 -0.08,-0.07 -0.14,-0.1 -0.05,-0.02 -0.12,-0.04 -0.19,-0.04zm0.16 1.31c0.1,0 0.2,-0.01 0.28,-0.02 0.09,-0.02 0.17,-0.04 0.25,-0.07l0 0.23c-0.06,0.03 -0.15,0.06 -0.25,0.07 -0.1,0.02 -0.2,0.03 -0.32,0.03 -0.13,0 -0.26,-0.02 -0.38,-0.05 -0.12,-0.03 -0.22,-0.08 -0.31,-0.15 -0.08,-0.07 -0.15,-0.16 -0.2,-0.27 -0.05,-0.11 -0.08,-0.24 -0.08,-0.4 0,-0.15 0.03,-0.29 0.08,-0.4 0.04,-0.11 0.11,-0.21 0.19,-0.28 0.08,-0.08 0.17,-0.14 0.27,-0.18 0.1,-0.03 0.21,-0.05 0.33,-0.05 0.1,0 0.2,0.01 0.29,0.04 0.1,0.04 0.18,0.09 0.24,0.15 0.07,0.07 0.12,0.16 0.16,0.27 0.04,0.1 0.06,0.23 0.06,0.38 0,0.02 0,0.03 0,0.04 0,0.01 0,0.03 0,0.07l-1.31 0c0,0.1 0.02,0.2 0.06,0.27 0.03,0.08 0.08,0.14 0.14,0.18 0.07,0.05 0.14,0.08 0.23,0.11 0.08,0.02 0.17,0.03 0.27,0.03zm2.51 0.2c-0.03,0.01 -0.07,0.02 -0.12,0.03 -0.06,0 -0.12,0.01 -0.2,0.01 -0.1,0 -0.18,-0.01 -0.26,-0.03 -0.07,-0.03 -0.13,-0.06 -0.18,-0.1 -0.05,-0.04 -0.09,-0.09 -0.11,-0.15 -0.02,-0.06 -0.04,-0.12 -0.04,-0.19l0 -1.03 -0.36 0 0 -0.24 0.36 0 0 -0.46 0.31 0 0 0.46 0.57 0 0 0.24 -0.57 0 0 0.99c0,0.03 0.01,0.07 0.02,0.1 0.02,0.04 0.04,0.07 0.06,0.09 0.03,0.03 0.07,0.04 0.11,0.06 0.04,0.01 0.09,0.02 0.15,0.02 0.04,0 0.09,0 0.13,-0.01 0.05,-0.01 0.09,-0.01 0.13,-0.02l0 0.23zm1.82 -1.47l-0.02 0c-0.07,0 -0.14,0 -0.21,0.01 -0.08,0.02 -0.14,0.04 -0.2,0.06 -0.07,0.02 -0.12,0.05 -0.17,0.09 -0.05,0.04 -0.09,0.08 -0.13,0.13l0 1.18 -0.31 0 0 -1.7 0.24 0 0.06 0.27 0.01 0c0.03,-0.04 0.07,-0.08 0.11,-0.12 0.05,-0.04 0.1,-0.07 0.15,-0.1 0.06,-0.03 0.12,-0.05 0.19,-0.07 0.06,-0.02 0.13,-0.02 0.21,-0.02 0.01,0 0.02,0 0.04,0 0.01,0 0.02,0 0.03,0l0 0.27zm2.07 0.62c0,-0.1 -0.01,-0.2 -0.04,-0.28 -0.03,-0.08 -0.07,-0.15 -0.12,-0.21 -0.05,-0.05 -0.11,-0.1 -0.18,-0.13 -0.08,-0.02 -0.15,-0.04 -0.24,-0.04 -0.08,0 -0.16,0.02 -0.23,0.04 -0.07,0.03 -0.13,0.08 -0.18,0.13 -0.05,0.06 -0.09,0.13 -0.12,0.21 -0.03,0.08 -0.04,0.18 -0.04,0.28 0,0.1 0.01,0.2 0.04,0.28 0.03,0.08 0.07,0.15 0.12,0.2 0.05,0.06 0.11,0.1 0.18,0.13 0.07,0.03 0.15,0.05 0.24,0.05 0.08,0 0.16,-0.02 0.23,-0.05 0.07,-0.03 0.13,-0.07 0.18,-0.13 0.05,-0.05 0.09,-0.12 0.12,-0.2 0.03,-0.08 0.04,-0.18 0.04,-0.28zm0.32 0c0,0.13 -0.02,0.25 -0.06,0.36 -0.04,0.11 -0.1,0.21 -0.18,0.28 -0.08,0.08 -0.17,0.14 -0.28,0.19 -0.11,0.04 -0.24,0.06 -0.37,0.06 -0.15,0 -0.27,-0.02 -0.38,-0.06 -0.11,-0.05 -0.21,-0.11 -0.29,-0.19 -0.07,-0.07 -0.13,-0.17 -0.17,-0.28 -0.05,-0.11 -0.07,-0.23 -0.07,-0.36 0,-0.13 0.02,-0.26 0.07,-0.37 0.04,-0.1 0.1,-0.2 0.18,-0.28 0.08,-0.08 0.17,-0.14 0.28,-0.18 0.11,-0.04 0.24,-0.06 0.37,-0.06 0.14,0 0.27,0.02 0.38,0.06 0.11,0.04 0.21,0.1 0.28,0.18 0.08,0.08 0.14,0.18 0.18,0.28 0.04,0.11 0.06,0.24 0.06,0.37zm-0.75 -1.78l0.42 0.62 -0.28 0 -0.29 -0.44 -0.01 0 -0.29 0.44 -0.28 0 0.42 -0.62 0.31 0zm1.91 1.17l0.01 0c0.03,-0.04 0.07,-0.08 0.11,-0.11 0.04,-0.04 0.09,-0.07 0.14,-0.09 0.05,-0.03 0.11,-0.05 0.17,-0.06 0.06,-0.02 0.13,-0.02 0.2,-0.02 0.09,0 0.17,0.01 0.25,0.03 0.07,0.02 0.14,0.06 0.19,0.1 0.06,0.05 0.1,0.11 0.14,0.19 0.03,0.08 0.05,0.17 0.05,0.28l0 1.14 -0.31 0 0 -1.09c0,-0.15 -0.04,-0.25 -0.1,-0.32 -0.06,-0.06 -0.15,-0.1 -0.27,-0.1 -0.11,0 -0.21,0.03 -0.31,0.08 -0.1,0.06 -0.19,0.13 -0.26,0.22l0 1.21 -0.31 0 0 -1.7 0.24 0 0.06 0.24zm2.25 1.46l0 -1.7 0.31 0 0 1.7 -0.31 0zm-0.01 -2.09l0 -0.31 0.31 0 0 0.31 -0.31 0zm2.12 0.35c0.09,0 0.18,0.01 0.26,0.02 0.08,0.02 0.15,0.04 0.21,0.07l0 0.23c-0.08,-0.03 -0.16,-0.05 -0.23,-0.06 -0.07,-0.02 -0.14,-0.02 -0.21,-0.02 -0.08,0 -0.16,0.01 -0.23,0.03 -0.08,0.02 -0.15,0.06 -0.2,0.11 -0.06,0.06 -0.11,0.12 -0.15,0.21 -0.04,0.08 -0.05,0.19 -0.05,0.32 0,0.09 0.01,0.17 0.04,0.25 0.02,0.08 0.06,0.14 0.12,0.2 0.05,0.06 0.12,0.1 0.2,0.13 0.08,0.03 0.18,0.05 0.28,0.05 0.08,0 0.16,-0.01 0.23,-0.02 0.08,-0.02 0.16,-0.04 0.23,-0.07l0 0.23c-0.02,0.02 -0.05,0.03 -0.08,0.04 -0.04,0.01 -0.08,0.02 -0.13,0.03 -0.04,0.01 -0.09,0.02 -0.13,0.02 -0.05,0.01 -0.1,0.01 -0.15,0.01 -0.13,0 -0.25,-0.02 -0.36,-0.05 -0.12,-0.04 -0.22,-0.09 -0.3,-0.16 -0.09,-0.07 -0.15,-0.16 -0.2,-0.27 -0.05,-0.11 -0.08,-0.24 -0.08,-0.39 0,-0.11 0.02,-0.21 0.04,-0.3 0.03,-0.09 0.06,-0.17 0.11,-0.24 0.04,-0.06 0.1,-0.12 0.16,-0.17 0.06,-0.05 0.12,-0.09 0.19,-0.12 0.07,-0.03 0.14,-0.05 0.21,-0.06 0.08,-0.02 0.15,-0.02 0.22,-0.02zm2.71 0.89c0,-0.1 -0.01,-0.2 -0.04,-0.28 -0.03,-0.08 -0.07,-0.15 -0.12,-0.21 -0.05,-0.05 -0.11,-0.1 -0.18,-0.13 -0.07,-0.02 -0.15,-0.04 -0.24,-0.04 -0.08,0 -0.16,0.02 -0.23,0.04 -0.07,0.03 -0.13,0.08 -0.18,0.13 -0.05,0.06 -0.09,0.13 -0.12,0.21 -0.03,0.08 -0.04,0.18 -0.04,0.28 0,0.1 0.01,0.2 0.04,0.28 0.03,0.08 0.07,0.15 0.12,0.2 0.05,0.06 0.11,0.1 0.18,0.13 0.08,0.03 0.15,0.05 0.24,0.05 0.08,0 0.16,-0.02 0.23,-0.05 0.07,-0.03 0.13,-0.07 0.18,-0.13 0.05,-0.05 0.09,-0.12 0.12,-0.2 0.03,-0.08 0.04,-0.18 0.04,-0.28zm0.32 0c0,0.13 -0.02,0.25 -0.06,0.36 -0.04,0.11 -0.1,0.21 -0.18,0.28 -0.08,0.08 -0.17,0.14 -0.28,0.19 -0.11,0.04 -0.24,0.06 -0.37,0.06 -0.14,0 -0.27,-0.02 -0.38,-0.06 -0.11,-0.05 -0.21,-0.11 -0.29,-0.19 -0.07,-0.07 -0.13,-0.17 -0.17,-0.28 -0.05,-0.11 -0.07,-0.23 -0.07,-0.36 0,-0.13 0.03,-0.26 0.07,-0.37 0.04,-0.1 0.1,-0.2 0.18,-0.28 0.08,-0.08 0.17,-0.14 0.28,-0.18 0.11,-0.04 0.24,-0.06 0.37,-0.06 0.14,0 0.27,0.02 0.38,0.06 0.11,0.04 0.21,0.1 0.28,0.18 0.08,0.08 0.14,0.18 0.18,0.28 0.04,0.11 0.06,0.24 0.06,0.37zm1.08 -0.4c0,0.05 0.01,0.09 0.04,0.12 0.02,0.03 0.05,0.05 0.09,0.07 0.03,0.02 0.07,0.03 0.12,0.04 0.05,0.02 0.1,0.03 0.16,0.04 0.07,0.01 0.13,0.03 0.2,0.04 0.06,0.02 0.12,0.05 0.18,0.08 0.05,0.04 0.09,0.08 0.13,0.14 0.03,0.06 0.05,0.14 0.05,0.23 0,0.09 -0.02,0.16 -0.06,0.23 -0.04,0.06 -0.09,0.12 -0.16,0.16 -0.07,0.05 -0.15,0.08 -0.24,0.1 -0.1,0.03 -0.2,0.04 -0.31,0.04 -0.07,0 -0.13,0 -0.19,-0.01 -0.06,-0.01 -0.11,-0.02 -0.15,-0.03 -0.04,-0.01 -0.08,-0.02 -0.11,-0.03 -0.03,-0.01 -0.06,-0.02 -0.08,-0.03l0 -0.23c0.08,0.03 0.16,0.05 0.24,0.07 0.07,0.02 0.16,0.03 0.25,0.03 0.07,0 0.14,-0.01 0.2,-0.02 0.06,-0.01 0.11,-0.03 0.15,-0.06 0.04,-0.02 0.08,-0.05 0.1,-0.08 0.02,-0.04 0.03,-0.08 0.03,-0.13 0,-0.04 -0.01,-0.08 -0.03,-0.11 -0.02,-0.03 -0.05,-0.06 -0.08,-0.08 -0.04,-0.02 -0.08,-0.04 -0.12,-0.05 -0.05,-0.01 -0.1,-0.02 -0.15,-0.04 -0.07,-0.01 -0.14,-0.02 -0.2,-0.04 -0.07,-0.02 -0.13,-0.04 -0.19,-0.08 -0.06,-0.03 -0.1,-0.07 -0.14,-0.13 -0.03,-0.05 -0.05,-0.12 -0.05,-0.21 0,-0.09 0.02,-0.17 0.05,-0.23 0.04,-0.07 0.09,-0.12 0.15,-0.16 0.06,-0.05 0.13,-0.08 0.21,-0.1 0.09,-0.02 0.17,-0.03 0.26,-0.03 0.11,0 0.2,0.01 0.29,0.02 0.09,0.02 0.18,0.04 0.25,0.07l0 0.23c-0.08,-0.02 -0.16,-0.05 -0.24,-0.06 -0.08,-0.02 -0.16,-0.03 -0.25,-0.03 -0.07,0 -0.13,0.01 -0.18,0.02 -0.05,0.01 -0.09,0.03 -0.12,0.06 -0.04,0.02 -0.06,0.05 -0.07,0.08 -0.02,0.03 -0.03,0.06 -0.03,0.1z"/>
   </g>
   <path class="fil3" d="M10.96 2.84l4.16 2.4 4.16 2.4 0 4.8 0 3.38 -10.48 -6.05 2.16 -1.25 5.86 3.38 0 -2.84 -1.58 -0.91 -4.28 -2.47 -2.46 1.42 -2.16 1.25 -2.46 -1.42 2.93 -1.69 4.15 -2.4zm0 19.2l-4.15 -2.4 -4.16 -2.4 0 -4.8 0 -3.38 10.48 6.05 -2.17 1.25 -5.85 -3.38 0 2.84 1.58 0.91 4.27 2.47 2.46 -1.42 2.17 -1.25 2.46 1.42 -2.93 1.69 -4.16 2.4z"/>
   <path class="fil4" d="M10.77 2.46l4.16 2.4 4.16 2.4 0 4.8 0 3.38 -10.48 -6.05 2.16 -1.25 5.86 3.38 0 -2.84 -1.58 -0.91 -4.28 -2.47 -2.46 1.42 -2.16 1.25 -2.46 -1.42 2.93 -1.69 4.15 -2.4zm0 19.2l-4.15 -2.4 -4.16 -2.4 0 -4.8 0 -3.38 10.48 6.05 -2.17 1.25 -5.85 -3.38 0 2.84 1.58 0.91 4.27 2.47 2.46 -1.42 2.17 -1.25 2.46 1.42 -2.93 1.69 -4.16 2.4z"/>
  </g>
 </g>
</svg>
