<?xml version="1.0" encoding="UTF-8"?>
<!DOCTYPE svg PUBLIC "-//W3C//DTD SVG 1.1//EN" "http://www.w3.org/Graphics/SVG/1.1/DTD/svg11.dtd">
<!-- Creator: CorelDRAW 2019 (64 Bit) -->
<svg xmlns="http://www.w3.org/2000/svg" xml:space="preserve" width="196px" height="72px" version="1.1" style="shape-rendering:geometricPrecision; text-rendering:geometricPrecision; image-rendering:optimizeQuality; fill-rule:evenodd; clip-rule:evenodd"
viewBox="0 0 6.76 2.48"
 xmlns:xlink="http://www.w3.org/1999/xlink">
 <defs>
  <style type="text/css">
   <![CDATA[
    .fil0 {fill:none}
    .fil3 {fill:black}
    .fil5 {fill:#132B55}
    .fil4 {fill:#BB1806}
    .fil1 {fill:white}
    .fil6 {fill:#132B55;fill-rule:nonzero}
    .fil2 {fill:white;fill-rule:nonzero}
   ]]>
  </style>
 </defs>
 <g id="Camada_x0020_1">
  <metadata id="CorelCorpID_0Corel-Layer"/>
  <g id="_2268997547600">
   <rect class="fil0" width="6.76" height="2.48"/>
   <g>
    <path class="fil1" d="M3.15 0.34c0.39,0 0.7,0.32 0.7,0.71 0,0.39 -0.31,0.71 -0.7,0.71l-0.64 0 0 -1.42c0.21,0 0.43,0 0.64,0l0 0zm0 1.1c0.19,-0.04 0.33,-0.2 0.33,-0.39 0,-0.19 -0.14,-0.35 -0.33,-0.39l-0.28 0 0 0.78 0.28 0zm1.22 -0.5c-0.07,0.02 -0.13,0.06 -0.19,0.1 -0.12,0.08 -0.19,0.2 -0.18,0.35 0.01,0.07 0.03,0.14 0.07,0.2 0.09,0.13 0.26,0.18 0.43,0.19 0.15,0.01 0.3,-0.04 0.41,-0.15l0.12 0.13 0.39 0 0 -0.04 -0.34 -0.37 0.29 -0.31 0 -0.05 -0.3 0 -0.16 0.17 -0.15 -0.17c0.07,-0.04 0.14,-0.09 0.19,-0.15 0.07,-0.08 0.09,-0.16 0.08,-0.24 -0.03,-0.19 -0.19,-0.26 -0.36,-0.28 -0.17,-0.01 -0.3,0.03 -0.4,0.12 -0.09,0.1 -0.1,0.22 -0.05,0.33 0.04,0.07 0.09,0.12 0.15,0.17zm0.37 0.48c-0.08,-0.09 -0.17,-0.18 -0.25,-0.27 -0.04,0.02 -0.06,0.04 -0.09,0.06 -0.08,0.08 -0.08,0.17 -0.03,0.23 0.05,0.05 0.1,0.06 0.16,0.06 0.08,0 0.17,-0.03 0.21,-0.08l0 0zm-0.15 -0.58c-0.02,-0.03 -0.05,-0.05 -0.07,-0.08 -0.06,-0.09 -0.01,-0.21 0.1,-0.2 0.08,0 0.13,0.06 0.12,0.13 -0.01,0.08 -0.09,0.11 -0.15,0.15zm1.04 0.5c0.11,0.1 0.38,0.18 0.53,0.15 0.11,-0.03 0.14,-0.15 0.06,-0.22 -0.1,-0.08 -0.35,-0.1 -0.5,-0.21 -0.16,-0.11 -0.23,-0.25 -0.16,-0.46 0.12,-0.32 0.6,-0.31 0.88,-0.23 0.05,0.02 0.11,0.05 0.16,0.08l-0.13 0.26c-0.05,-0.06 -0.33,-0.14 -0.47,-0.1 -0.1,0.03 -0.13,0.13 -0.05,0.2 0.1,0.08 0.37,0.12 0.53,0.24 0.17,0.12 0.22,0.33 0.1,0.52 -0.11,0.17 -0.33,0.21 -0.52,0.21 -0.22,0 -0.41,-0.06 -0.57,-0.16 0.04,-0.09 0.09,-0.19 0.14,-0.28l0 0z"/>
    <path class="fil2" d="M2.53 2.06c0,0 0,0.01 0,0.01 0,0 0.01,0.01 0.01,0.01 0,0 0.01,0 0.01,0 0.01,0 0.01,0.01 0.02,0.01 0.01,0 0.01,0 0.02,0 0.01,0 0.01,0.01 0.02,0.01 0,0 0.01,0.01 0.01,0.01 0.01,0.01 0.01,0.02 0.01,0.03 0,0.01 -0.01,0.01 -0.01,0.02 0,0.01 -0.01,0.01 -0.02,0.02 0,0 -0.01,0.01 -0.02,0.01 -0.01,0 -0.02,0 -0.03,0 -0.01,0 -0.02,0 -0.02,0 -0.01,0 -0.01,0 -0.02,0 0,0 -0.01,0 -0.01,-0.01 0,0 0,0 -0.01,0l0 -0.02c0.01,0 0.02,0 0.03,0 0.01,0.01 0.01,0.01 0.02,0.01 0.01,0 0.02,0 0.02,0 0.01,-0.01 0.01,-0.01 0.02,-0.01 0,0 0.01,-0.01 0.01,-0.01 0,0 0,-0.01 0,-0.01 0,-0.01 0,-0.01 0,-0.01 0,-0.01 -0.01,-0.01 -0.01,-0.01 0,0 -0.01,-0.01 -0.01,-0.01 -0.01,0 -0.01,0 -0.02,0 0,0 -0.01,0 -0.02,0 0,-0.01 -0.01,-0.01 -0.02,-0.01 0,-0.01 -0.01,-0.01 -0.01,-0.02 0,0 -0.01,-0.01 -0.01,-0.02 0,-0.01 0.01,-0.02 0.01,-0.02 0,-0.01 0.01,-0.01 0.02,-0.02 0,0 0.01,-0.01 0.02,-0.01 0,0 0.01,0 0.02,0 0.01,0 0.02,0 0.03,0 0.01,0 0.02,0 0.03,0.01l0 0.02c-0.01,0 -0.02,0 -0.03,0 0,-0.01 -0.01,-0.01 -0.02,-0.01 -0.01,0 -0.01,0 -0.02,0 -0.01,0.01 -0.01,0.01 -0.01,0.01 -0.01,0 -0.01,0.01 -0.01,0.01 0,0 0,0 0,0.01l0 0zm0.18 0.13l0 -0.18 0.04 0 0 0.18 -0.04 0zm0 -0.22l0 -0.03 0.04 0 0 0.03 -0.04 0zm0.16 0.09c0,0 0,0.01 0,0.01 0.01,0 0.01,0.01 0.01,0.01 0.01,0 0.01,0 0.02,0 0,0 0.01,0.01 0.01,0.01 0.01,0 0.02,0 0.02,0 0.01,0 0.02,0.01 0.02,0.01 0.01,0 0.01,0.01 0.01,0.01 0.01,0.01 0.01,0.02 0.01,0.03 0,0.01 0,0.01 -0.01,0.02 0,0.01 -0.01,0.01 -0.01,0.02 -0.01,0 -0.02,0.01 -0.03,0.01 -0.01,0 -0.02,0 -0.03,0 -0.01,0 -0.01,0 -0.02,0 0,0 -0.01,0 -0.01,0 -0.01,0 -0.01,0 -0.02,-0.01 0,0 0,0 0,0l0 -0.02c0,0 0.01,0 0.02,0 0.01,0.01 0.02,0.01 0.03,0.01 0,0 0.01,0 0.02,0 0,-0.01 0.01,-0.01 0.01,-0.01 0.01,0 0.01,-0.01 0.01,-0.01 0.01,0 0.01,-0.01 0.01,-0.01 0,-0.01 0,-0.01 -0.01,-0.01 0,-0.01 0,-0.01 -0.01,-0.01 0,0 0,-0.01 -0.01,-0.01 0,0 -0.01,0 -0.01,0 -0.01,0 -0.02,0 -0.02,0 -0.01,-0.01 -0.02,-0.01 -0.02,-0.01 -0.01,-0.01 -0.01,-0.01 -0.02,-0.02 0,0 0,-0.01 0,-0.02 0,-0.01 0,-0.02 0,-0.02 0.01,-0.01 0.01,-0.01 0.02,-0.02 0,0 0.01,-0.01 0.02,-0.01 0.01,0 0.02,0 0.03,0 0.01,0 0.02,0 0.03,0 0.01,0 0.01,0 0.02,0.01l0 0.02c-0.01,0 -0.01,0 -0.02,0 -0.01,-0.01 -0.02,-0.01 -0.03,-0.01 -0.01,0 -0.01,0 -0.02,0 0,0.01 -0.01,0.01 -0.01,0.01 0,0 -0.01,0.01 -0.01,0.01 0,0 0,0 0,0.01l0 0zm0.29 0.13c0,0 -0.01,0 -0.01,0 -0.01,0 -0.02,0 -0.02,0 -0.01,0 -0.02,0 -0.03,0 -0.01,0 -0.01,-0.01 -0.02,-0.01 0,-0.01 -0.01,-0.01 -0.01,-0.02 0,0 0,-0.01 0,-0.02l0 -0.1 -0.04 0 0 -0.03 0.04 0 0 -0.04 0.03 0 0 0.04 0.06 0 0 0.03 -0.06 0 0 0.1c0,0 0,0.01 0,0.01 0,0 0,0.01 0.01,0.01 0,0 0,0 0.01,0 0,0.01 0.01,0.01 0.01,0.01 0.01,0 0.01,0 0.02,0 0,-0.01 0,-0.01 0.01,-0.01l0 0.03 0 0zm0.16 -0.16c-0.01,0 -0.02,0 -0.03,0.01 0,0 -0.01,0 -0.01,0.01 -0.01,0 -0.01,0.01 -0.01,0.01 -0.01,0.01 -0.01,0.01 -0.01,0.02l0.1 0c0,-0.01 0,-0.01 0,-0.02 0,0 -0.01,-0.01 -0.01,-0.01 0,-0.01 -0.01,-0.01 -0.02,-0.01 0,-0.01 -0.01,-0.01 -0.01,-0.01zm0.01 0.14c0.01,0 0.02,0 0.03,-0.01 0.01,0 0.02,0 0.03,0l0 0.02c-0.01,0 -0.02,0.01 -0.03,0.01 -0.01,0 -0.02,0 -0.03,0 -0.02,0 -0.03,0 -0.04,0 -0.01,-0.01 -0.02,-0.01 -0.03,-0.02 -0.01,-0.01 -0.02,-0.02 -0.02,-0.03 -0.01,-0.01 -0.01,-0.02 -0.01,-0.04 0,-0.01 0,-0.03 0.01,-0.04 0,-0.01 0.01,-0.02 0.01,-0.03 0.01,-0.01 0.02,-0.01 0.03,-0.02 0.01,0 0.03,0 0.04,0 0.01,0 0.02,0 0.03,0 0.01,0.01 0.01,0.01 0.02,0.02 0.01,0.01 0.01,0.01 0.02,0.03 0,0.01 0,0.02 0,0.03 0,0.01 0,0.01 0,0.01 0,0 0,0 0,0.01l-0.13 0c0,0.01 0,0.02 0.01,0.02 0,0.01 0,0.02 0.01,0.02 0.01,0.01 0.01,0.01 0.02,0.01 0.01,0.01 0.02,0.01 0.03,0.01l0 0zm0.32 0.02l-0.04 0 0 -0.11c0,-0.01 0,-0.02 0,-0.02 0,-0.01 0,-0.01 -0.01,-0.02 0,0 -0.01,0 -0.01,0 0,-0.01 -0.01,-0.01 -0.02,-0.01 -0.01,0 -0.02,0.01 -0.03,0.01 -0.01,0.01 -0.02,0.01 -0.02,0.02l0 0.13 -0.03 0 0 -0.18 0.02 0 0.01 0.03 0 0c0,-0.01 0,-0.01 0.01,-0.01 0,-0.01 0.01,-0.01 0.01,-0.01 0.01,-0.01 0.01,-0.01 0.02,-0.01 0.01,0 0.01,0 0.02,0 0.01,0 0.03,0 0.04,0.01 0.01,0 0.01,0.01 0.02,0.02l0 0c0.01,-0.01 0.02,-0.02 0.03,-0.02 0.01,-0.01 0.02,-0.01 0.04,-0.01 0,0 0.01,0 0.02,0 0.01,0 0.01,0.01 0.02,0.01 0.01,0 0.01,0.01 0.02,0.02 0,0.01 0,0.02 0,0.03l0 0.12 -0.03 0 0 -0.11c0,-0.01 0,-0.02 0,-0.02 0,-0.01 -0.01,-0.01 -0.01,-0.02 0,0 -0.01,0 -0.01,0 -0.01,-0.01 -0.01,-0.01 -0.02,-0.01 -0.01,0 -0.02,0.01 -0.03,0.01 -0.01,0.01 -0.02,0.01 -0.02,0.02l0 0.13 0 0zm0.34 -0.02l0 0c-0.01,0 -0.01,0 -0.02,0.01 0,0 0,0 -0.01,0 0,0.01 -0.01,0.01 -0.02,0.01 0,0 -0.01,0 -0.02,0 0,0 -0.01,0 -0.02,0 -0.01,0 -0.02,-0.01 -0.02,-0.01 -0.01,-0.01 -0.01,-0.01 -0.01,-0.02 -0.01,-0.01 -0.01,-0.02 -0.01,-0.03 0,0 0,-0.01 0.01,-0.02 0,0 0,-0.01 0.01,-0.02 0.01,0 0.01,0 0.02,-0.01 0.01,0 0.02,0 0.03,0 0.01,0 0.02,0 0.03,0 0.01,0 0.02,0.01 0.02,0.01l0 0 0 -0.01c0,-0.01 0,-0.01 0,-0.02 0,0 0,0 0,-0.01 0,0 -0.01,-0.01 -0.02,-0.01 -0.01,0 -0.02,-0.01 -0.03,-0.01 -0.01,0 -0.02,0 -0.03,0.01 -0.01,0 -0.01,0 -0.02,0l0 -0.02c0,0 0,0 0.01,-0.01 0,0 0.01,0 0.01,0 0.01,0 0.01,0 0.02,0 0,0 0.01,0 0.01,0 0.02,0 0.04,0 0.05,0.01 0.02,0 0.02,0.01 0.03,0.02 0,0.01 0,0.01 0.01,0.01 0,0.01 0,0.02 0,0.02l0 0.12 -0.03 0 0 -0.02 0 0zm-0.01 -0.06c0,0 -0.01,0 -0.02,0 0,0 -0.01,-0.01 -0.02,-0.01 -0.02,0 -0.03,0.01 -0.03,0.01 -0.01,0.01 -0.02,0.01 -0.02,0.02 0,0.01 0,0.02 0.01,0.02 0,0 0,0.01 0,0.01 0.01,0 0.01,0 0.02,0.01 0,0 0.01,0 0.01,0 0.01,0 0.01,0 0.02,-0.01 0.01,0 0.01,0 0.02,0 0,0 0,-0.01 0.01,-0.01 0,0 0,0 0,0l0 -0.04 0 0zm0.16 -0.05c0,0 0,0.01 0,0.01 0,0 0.01,0.01 0.01,0.01 0,0 0.01,0 0.01,0 0.01,0 0.01,0.01 0.02,0.01 0.01,0 0.01,0 0.02,0 0.01,0 0.01,0.01 0.02,0.01 0,0 0.01,0.01 0.01,0.01 0,0.01 0.01,0.02 0.01,0.03 0,0.01 -0.01,0.01 -0.01,0.02 0,0.01 -0.01,0.01 -0.02,0.02 0,0 -0.01,0.01 -0.02,0.01 -0.01,0 -0.02,0 -0.03,0 -0.01,0 -0.02,0 -0.02,0 -0.01,0 -0.01,0 -0.02,0 0,0 -0.01,0 -0.01,-0.01 0,0 0,0 -0.01,0l0 -0.02c0.01,0 0.02,0 0.03,0 0.01,0.01 0.01,0.01 0.02,0.01 0.01,0 0.02,0 0.02,0 0.01,-0.01 0.02,-0.01 0.02,-0.01 0,0 0.01,-0.01 0.01,-0.01 0,0 0,-0.01 0,-0.01 0,-0.01 0,-0.01 0,-0.01 0,-0.01 0,-0.01 -0.01,-0.01 0,0 -0.01,-0.01 -0.01,-0.01 -0.01,0 -0.01,0 -0.02,0 0,0 -0.01,0 -0.02,0 0,-0.01 -0.01,-0.01 -0.02,-0.01 0,-0.01 -0.01,-0.01 -0.01,-0.02 0,0 -0.01,-0.01 -0.01,-0.02 0,-0.01 0.01,-0.02 0.01,-0.02 0,-0.01 0.01,-0.01 0.01,-0.02 0.01,0 0.02,-0.01 0.03,-0.01 0.01,0 0.01,0 0.02,0 0.01,0 0.02,0 0.03,0 0.01,0 0.02,0 0.03,0.01l0 0.02c-0.01,0 -0.02,0 -0.03,0 0,-0.01 -0.01,-0.01 -0.02,-0.01 -0.01,0 -0.01,0 -0.02,0 -0.01,0.01 -0.01,0.01 -0.01,0.01 -0.01,0 -0.01,0.01 -0.01,0.01 0,0 0,0 0,0.01l0 0zm0.34 -0.03c0,0 -0.01,0 -0.02,0.01 0,0 -0.01,0 -0.01,0.01 -0.01,0 -0.01,0.01 -0.02,0.01 0,0.01 0,0.01 0,0.02l0.1 0c0,-0.01 0,-0.01 0,-0.02 -0.01,0 -0.01,-0.01 -0.01,-0.01 -0.01,-0.01 -0.01,-0.01 -0.02,-0.01 0,-0.01 -0.01,-0.01 -0.02,-0.01l0 0zm0.02 0.14c0.01,0 0.02,0 0.03,-0.01 0.01,0 0.02,0 0.02,0l0 0.02c0,0 -0.01,0.01 -0.02,0.01 -0.01,0 -0.02,0 -0.04,0 -0.01,0 -0.02,0 -0.03,0 -0.02,-0.01 -0.03,-0.01 -0.04,-0.02 -0.01,-0.01 -0.01,-0.02 -0.02,-0.03 0,-0.01 0,-0.02 0,-0.04 0,-0.01 0,-0.03 0,-0.04 0.01,-0.01 0.01,-0.02 0.02,-0.03 0.01,-0.01 0.02,-0.01 0.03,-0.02 0.01,0 0.02,0 0.03,0 0.01,0 0.03,0 0.03,0 0.01,0.01 0.02,0.01 0.03,0.02 0.01,0.01 0.01,0.01 0.02,0.03 0,0.01 0,0.02 0,0.03 0,0.01 0,0.01 0,0.01 0,0 0,0 0,0.01l-0.13 0c0,0.01 0,0.02 0,0.02 0.01,0.01 0.01,0.02 0.02,0.02 0,0.01 0.01,0.01 0.02,0.01 0.01,0.01 0.02,0.01 0.03,0.01l0 0zm0.16 0.02l0 -0.27 0.03 0 0 0.27 -0.03 0zm0.2 -0.16c0,0 -0.01,0 -0.02,0.01 0,0 -0.01,0 -0.01,0.01 -0.01,0 -0.01,0.01 -0.01,0.01 -0.01,0.01 -0.01,0.01 -0.01,0.02l0.1 0c0,-0.01 0,-0.01 0,-0.02 0,0 -0.01,-0.01 -0.01,-0.01 -0.01,-0.01 -0.01,-0.01 -0.02,-0.01 0,-0.01 -0.01,-0.01 -0.02,-0.01l0 0zm0.02 0.14c0.01,0 0.02,0 0.03,-0.01 0.01,0 0.02,0 0.03,0l0 0.02c-0.01,0 -0.02,0.01 -0.03,0.01 -0.01,0 -0.02,0 -0.03,0 -0.02,0 -0.03,0 -0.04,0 -0.01,-0.01 -0.02,-0.01 -0.03,-0.02 -0.01,-0.01 -0.02,-0.02 -0.02,-0.03 -0.01,-0.01 -0.01,-0.02 -0.01,-0.04 0,-0.01 0,-0.03 0.01,-0.04 0,-0.01 0.01,-0.02 0.02,-0.03 0,-0.01 0.01,-0.01 0.02,-0.02 0.01,0 0.02,0 0.04,0 0.01,0 0.02,0 0.03,0 0.01,0.01 0.01,0.01 0.02,0.02 0.01,0.01 0.01,0.01 0.02,0.03 0,0.01 0,0.02 0,0.03 0,0.01 0,0.01 0,0.01 0,0 0,0 0,0.01l-0.13 0c0,0.01 0,0.02 0.01,0.02 0,0.01 0,0.02 0.01,0.02 0.01,0.01 0.01,0.01 0.02,0.01 0.01,0.01 0.02,0.01 0.03,0.01l0 0zm0.26 0.02c0,0 -0.01,0 -0.01,0 -0.01,0 -0.02,0 -0.02,0 -0.01,0 -0.02,0 -0.03,0 -0.01,0 -0.01,-0.01 -0.02,-0.01 0,-0.01 -0.01,-0.01 -0.01,-0.02 0,0 0,-0.01 0,-0.02l0 -0.1 -0.04 0 0 -0.03 0.04 0 0 -0.04 0.03 0 0 0.04 0.06 0 0 0.03 -0.06 0 0 0.1c0,0 0,0.01 0,0.01 0,0 0,0.01 0.01,0.01 0,0 0,0 0.01,0 0,0.01 0.01,0.01 0.01,0.01 0.01,0 0.01,0 0.02,0 0,-0.01 0,-0.01 0.01,-0.01l0 0.03 0 0zm0.19 -0.15l-0.01 0c0,0 -0.01,0 -0.02,0 -0.01,0 -0.01,0 -0.02,0 -0.01,0.01 -0.01,0.01 -0.02,0.01 0,0.01 0,0.01 -0.01,0.02l0 0.12 -0.03 0 0 -0.18 0.02 0 0.01 0.03 0 0c0,0 0.01,-0.01 0.01,-0.01 0.01,-0.01 0.01,-0.01 0.02,-0.01 0,-0.01 0.01,-0.01 0.02,-0.01 0,0 0.01,0 0.02,0 0,0 0,0 0,0 0,0 0,0 0.01,0l0 0.03 0 0zm0.21 0.06c0,-0.01 0,-0.02 -0.01,-0.03 0,-0.01 0,-0.01 -0.01,-0.02 0,-0.01 -0.01,-0.01 -0.02,-0.01 0,-0.01 -0.01,-0.01 -0.02,-0.01 -0.01,0 -0.02,0 -0.02,0.01 -0.01,0 -0.02,0 -0.02,0.01 -0.01,0.01 -0.01,0.01 -0.02,0.02 0,0.01 0,0.02 0,0.03 0,0.01 0,0.02 0,0.03 0.01,0.01 0.01,0.01 0.02,0.02 0,0.01 0.01,0.01 0.02,0.01 0,0.01 0.01,0.01 0.02,0.01 0.01,0 0.02,0 0.02,-0.01 0.01,0 0.02,0 0.02,-0.01 0.01,-0.01 0.01,-0.01 0.01,-0.02 0.01,-0.01 0.01,-0.02 0.01,-0.03zm0.03 0c0,0.01 0,0.03 0,0.04 -0.01,0.01 -0.01,0.02 -0.02,0.03 -0.01,0 -0.02,0.01 -0.03,0.02 -0.01,0 -0.03,0 -0.04,0 -0.02,0 -0.03,0 -0.04,0 -0.01,-0.01 -0.02,-0.02 -0.03,-0.02 -0.01,-0.01 -0.01,-0.02 -0.02,-0.03 0,-0.01 0,-0.03 0,-0.04 0,-0.01 0,-0.03 0,-0.04 0.01,-0.01 0.01,-0.02 0.02,-0.03 0.01,-0.01 0.02,-0.01 0.03,-0.02 0.01,0 0.03,0 0.04,0 0.01,0 0.03,0 0.04,0 0.01,0.01 0.02,0.01 0.03,0.02 0.01,0.01 0.01,0.02 0.02,0.03 0,0.01 0,0.03 0,0.04l0 0zm-0.08 -0.18l0.05 0.06 -0.03 0 -0.03 -0.04 0 0 -0.03 0.04 -0.03 0 0.04 -0.06 0.03 0 0 0zm0.2 0.12l0 0c0,-0.01 0.01,-0.01 0.01,-0.01 0.01,-0.01 0.01,-0.01 0.02,-0.01 0,-0.01 0.01,-0.01 0.01,-0.01 0.01,0 0.02,0 0.03,0 0,0 0.01,0 0.02,0 0.01,0 0.02,0.01 0.02,0.01 0.01,0.01 0.01,0.01 0.01,0.02 0.01,0.01 0.01,0.02 0.01,0.03l0 0.12 -0.03 0 0 -0.11c0,-0.02 -0.01,-0.03 -0.01,-0.04 -0.01,0 -0.02,-0.01 -0.03,-0.01 -0.01,0 -0.02,0.01 -0.03,0.01 -0.01,0.01 -0.02,0.01 -0.03,0.02l0 0.13 -0.03 0 0 -0.18 0.02 0 0.01 0.03 0 0zm0.23 0.15l0 -0.18 0.03 0 0 0.18 -0.03 0zm0 -0.22l0 -0.03 0.03 0 0 0.03 -0.03 0zm0.22 0.04c0.01,0 0.02,0 0.03,0 0,0 0.01,0 0.02,0.01l0 0.02c-0.01,0 -0.02,0 -0.03,0 0,-0.01 -0.01,-0.01 -0.02,-0.01 -0.01,0 -0.01,0 -0.02,0.01 -0.01,0 -0.02,0 -0.02,0.01 -0.01,0 -0.01,0.01 -0.02,0.02 0,0.01 0,0.02 0,0.03 0,0.01 0,0.02 0,0.03 0,0.01 0.01,0.01 0.01,0.02 0.01,0 0.02,0.01 0.02,0.01 0.01,0 0.02,0.01 0.03,0.01 0.01,0 0.02,0 0.03,-0.01 0,0 0.01,0 0.02,0l0 0.02c0,0 -0.01,0 -0.01,0.01 0,0 -0.01,0 -0.01,0 -0.01,0 -0.01,0 -0.02,0 0,0 -0.01,0 -0.01,0 -0.01,0 -0.03,0 -0.04,0 -0.01,-0.01 -0.02,-0.01 -0.03,-0.02 -0.01,-0.01 -0.01,-0.02 -0.02,-0.03 0,-0.01 -0.01,-0.02 -0.01,-0.04 0,-0.01 0.01,-0.02 0.01,-0.03 0,-0.01 0,-0.02 0.01,-0.02 0,-0.01 0.01,-0.02 0.01,-0.02 0.01,-0.01 0.02,-0.01 0.02,-0.01 0.01,-0.01 0.02,-0.01 0.03,-0.01 0,0 0.01,0 0.02,0l0 0zm0.28 0.09c0,-0.01 0,-0.02 -0.01,-0.03 0,-0.01 0,-0.01 -0.01,-0.02 0,-0.01 -0.01,-0.01 -0.02,-0.01 -0.01,-0.01 -0.01,-0.01 -0.02,-0.01 -0.01,0 -0.02,0 -0.03,0.01 0,0 -0.01,0 -0.01,0.01 -0.01,0.01 -0.01,0.01 -0.02,0.02 0,0.01 0,0.02 0,0.03 0,0.01 0,0.02 0,0.03 0.01,0.01 0.01,0.01 0.02,0.02 0,0.01 0.01,0.01 0.01,0.01 0.01,0.01 0.02,0.01 0.03,0.01 0.01,0 0.01,0 0.02,-0.01 0.01,0 0.02,0 0.02,-0.01 0.01,-0.01 0.01,-0.01 0.01,-0.02 0.01,-0.01 0.01,-0.02 0.01,-0.03zm0.03 0c0,0.01 0,0.03 -0.01,0.04 0,0.01 -0.01,0.02 -0.01,0.03 -0.01,0 -0.02,0.01 -0.03,0.02 -0.01,0 -0.03,0 -0.04,0 -0.02,0 -0.03,0 -0.04,0 -0.01,-0.01 -0.02,-0.02 -0.03,-0.02 -0.01,-0.01 -0.01,-0.02 -0.02,-0.03 0,-0.01 -0.01,-0.03 -0.01,-0.04 0,-0.01 0.01,-0.03 0.01,-0.04 0.01,-0.01 0.01,-0.02 0.02,-0.03 0.01,-0.01 0.02,-0.01 0.03,-0.02 0.01,0 0.02,0 0.04,0 0.01,0 0.03,0 0.04,0 0.01,0.01 0.02,0.01 0.03,0.02 0,0.01 0.01,0.02 0.01,0.03 0.01,0.01 0.01,0.03 0.01,0.04l0 0zm0.11 -0.04c0,0 0,0.01 0,0.01 0.01,0 0.01,0.01 0.01,0.01 0.01,0 0.01,0 0.02,0 0,0 0.01,0.01 0.01,0.01 0.01,0 0.02,0 0.02,0 0.01,0 0.02,0.01 0.02,0.01 0.01,0 0.01,0.01 0.02,0.01 0,0.01 0,0.02 0,0.03 0,0.01 0,0.01 -0.01,0.02 0,0.01 0,0.01 -0.01,0.02 -0.01,0 -0.02,0.01 -0.03,0.01 -0.01,0 -0.02,0 -0.03,0 -0.01,0 -0.01,0 -0.02,0 0,0 -0.01,0 -0.01,0 -0.01,0 -0.01,0 -0.01,-0.01 -0.01,0 -0.01,0 -0.01,0l0 -0.02c0.01,0 0.01,0 0.02,0 0.01,0.01 0.02,0.01 0.03,0.01 0,0 0.01,0 0.02,0 0,-0.01 0.01,-0.01 0.01,-0.01 0.01,0 0.01,-0.01 0.01,-0.01 0.01,0 0.01,-0.01 0.01,-0.01 0,-0.01 0,-0.01 -0.01,-0.01 0,-0.01 0,-0.01 0,-0.01 -0.01,0 -0.01,-0.01 -0.02,-0.01 0,0 -0.01,0 -0.01,0 -0.01,0 -0.02,0 -0.02,0 -0.01,-0.01 -0.02,-0.01 -0.02,-0.01 -0.01,-0.01 -0.01,-0.01 -0.02,-0.02 0,0 0,-0.01 0,-0.02 0,-0.01 0,-0.02 0,-0.02 0.01,-0.01 0.01,-0.01 0.02,-0.02 0,0 0.01,-0.01 0.02,-0.01 0.01,0 0.02,0 0.03,0 0.01,0 0.02,0 0.03,0 0.01,0 0.02,0 0.02,0.01l0 0.02c-0.01,0 -0.01,0 -0.02,0 -0.01,-0.01 -0.02,-0.01 -0.03,-0.01 -0.01,0 -0.01,0 -0.02,0 0,0.01 -0.01,0.01 -0.01,0.01 0,0 -0.01,0.01 -0.01,0.01 0,0 0,0 0,0.01l0 0z"/>
   </g>
   <path class="fil3" d="M1.13 0.29l0.42 0.25 0.43 0.24 0 0.5 0 0.35 -1.08 -0.63 0.23 -0.12 0.6 0.34 0 -0.29 -0.16 -0.09 -0.44 -0.26 -0.26 0.15 -0.22 0.13 -0.25 -0.15 0.3 -0.17 0.43 -0.25 0 0zm0 1.97l-0.43 -0.24 -0.43 -0.25 0 -0.49 0 -0.35 1.08 0.62 -0.22 0.13 -0.61 -0.35 0 0.3 0.17 0.09 0.44 0.25 0.25 -0.14 0.22 -0.13 0.25 0.14 -0.3 0.18 -0.42 0.24 0 0z"/>
   <path class="fil4" d="M1.11 0.25l0.42 0.25 0.43 0.25 0 0.49 0 0.35 -1.08 -0.63 0.23 -0.12 0.6 0.34 0 -0.29 -0.16 -0.09 -0.44 -0.26 -0.26 0.15 -0.22 0.13 -0.25 -0.15 0.3 -0.17 0.43 -0.25 0 0zm0 1.98l-0.43 -0.25 -0.43 -0.25 0 -0.49 0 -0.35 1.08 0.62 -0.22 0.13 -0.6 -0.35 0 0.3 0.16 0.09 0.44 0.25 0.25 -0.14 0.22 -0.13 0.25 0.15 -0.3 0.17 -0.42 0.25 0 0z"/>
   <g>
    <path class="fil5" d="M3.12 0.31c0.38,0 0.7,0.31 0.7,0.71 0,0.39 -0.32,0.7 -0.7,0.7l-0.65 0 0 -1.41c0.22,0 0.44,0 0.65,0l0 0zm0 1.09c0.19,-0.03 0.33,-0.19 0.33,-0.38 0,-0.2 -0.14,-0.36 -0.33,-0.39l-0.28 0 0 0.77 0.28 0zm1.22 -0.5c-0.07,0.03 -0.13,0.06 -0.19,0.1 -0.12,0.09 -0.19,0.2 -0.18,0.36 0.01,0.07 0.03,0.14 0.06,0.19 0.09,0.13 0.27,0.19 0.44,0.2 0.15,0 0.3,-0.05 0.41,-0.15l0.12 0.12 0.38 0 0 -0.03 -0.33 -0.38 0.29 -0.3 0 -0.05 -0.3 0 -0.16 0.16 -0.16 -0.17c0.08,-0.04 0.15,-0.08 0.2,-0.14 0.07,-0.08 0.09,-0.17 0.08,-0.25 -0.03,-0.18 -0.19,-0.26 -0.36,-0.27 -0.17,-0.01 -0.31,0.02 -0.4,0.11 -0.1,0.1 -0.1,0.23 -0.05,0.34 0.03,0.06 0.08,0.12 0.15,0.16zm0.37 0.48c-0.09,-0.09 -0.17,-0.18 -0.25,-0.27 -0.04,0.02 -0.07,0.04 -0.09,0.07 -0.08,0.08 -0.08,0.16 -0.03,0.22 0.04,0.05 0.1,0.07 0.16,0.07 0.08,0 0.16,-0.03 0.21,-0.09l0 0zm-0.15 -0.58c-0.03,-0.02 -0.05,-0.04 -0.07,-0.08 -0.07,-0.09 -0.02,-0.2 0.1,-0.2 0.08,0 0.13,0.07 0.12,0.14 -0.01,0.07 -0.09,0.11 -0.15,0.14zm1.04 0.5c0.11,0.1 0.38,0.19 0.53,0.15 0.11,-0.02 0.14,-0.14 0.06,-0.21 -0.1,-0.09 -0.35,-0.1 -0.51,-0.22 -0.15,-0.11 -0.22,-0.25 -0.15,-0.45 0.12,-0.33 0.6,-0.31 0.87,-0.23 0.06,0.02 0.12,0.04 0.17,0.07l-0.13 0.26c-0.06,-0.05 -0.33,-0.13 -0.48,-0.09 -0.09,0.03 -0.12,0.13 -0.04,0.19 0.1,0.09 0.37,0.13 0.53,0.24 0.17,0.13 0.22,0.34 0.1,0.53 -0.11,0.17 -0.33,0.21 -0.52,0.21 -0.22,0 -0.42,-0.06 -0.58,-0.16 0.05,-0.1 0.1,-0.19 0.15,-0.29l0 0z"/>
    <path class="fil6" d="M2.5 2.06c0,0 0,0.01 0,0.01 0,0 0,0.01 0.01,0.01 0,0 0.01,0 0.01,0 0.01,0 0.01,0.01 0.02,0.01 0,0 0.01,0 0.02,0 0,0 0.01,0.01 0.02,0.01 0,0 0.01,0.01 0.01,0.01 0,0.01 0,0.02 0,0.03 0,0.01 0,0.01 0,0.02 -0.01,0.01 -0.01,0.01 -0.02,0.02 -0.01,0 -0.01,0.01 -0.02,0.01 -0.01,0 -0.02,0 -0.04,0 0,0 -0.01,0 -0.01,0 -0.01,0 -0.02,0 -0.02,0 0,0 -0.01,0 -0.01,-0.01 0,0 -0.01,0 -0.01,0l0 -0.02c0.01,0 0.02,0 0.02,0 0.01,0.01 0.02,0.01 0.03,0.01 0.01,0 0.02,0 0.02,0 0.01,-0.01 0.01,-0.01 0.02,-0.01 0,0 0,-0.01 0.01,-0.01 0,0 0,-0.01 0,-0.01 0,-0.01 0,-0.01 0,-0.01 0,-0.01 -0.01,-0.01 -0.01,-0.01 0,0 -0.01,-0.01 -0.01,-0.01 -0.01,0 -0.01,0 -0.02,0 -0.01,0 -0.01,0 -0.02,0 -0.01,-0.01 -0.01,-0.01 -0.02,-0.01 0,-0.01 -0.01,-0.01 -0.01,-0.02 -0.01,0 -0.01,-0.01 -0.01,-0.02 0,-0.01 0,-0.02 0.01,-0.02 0,-0.01 0.01,-0.01 0.01,-0.02 0.01,0 0.02,-0.01 0.02,-0.01 0.01,0 0.02,0 0.03,0 0.01,0 0.02,0 0.03,0 0.01,0 0.02,0 0.03,0.01l0 0.02c-0.01,0 -0.02,0 -0.03,0 -0.01,-0.01 -0.01,-0.01 -0.02,-0.01 -0.01,0 -0.02,0 -0.02,0 -0.01,0.01 -0.01,0.01 -0.02,0.01 0,0 0,0.01 0,0.01 0,0 0,0 0,0.01l0 0zm0.18 0.13l0 -0.18 0.03 0 0 0.18 -0.03 0zm0 -0.22l0 -0.03 0.03 0 0 0.03 -0.03 0zm0.16 0.09c0,0 0,0.01 0,0.01 0,0 0.01,0.01 0.01,0.01 0,0 0.01,0 0.01,0 0.01,0 0.01,0.01 0.02,0.01 0.01,0 0.01,0 0.02,0 0.01,0 0.01,0.01 0.02,0.01 0,0 0.01,0.01 0.01,0.01 0.01,0.01 0.01,0.02 0.01,0.03 0,0.01 -0.01,0.01 -0.01,0.02 0,0.01 -0.01,0.01 -0.01,0.02 -0.01,0 -0.02,0.01 -0.03,0.01 -0.01,0 -0.02,0 -0.03,0 -0.01,0 -0.02,0 -0.02,0 -0.01,0 -0.01,0 -0.02,0 0,0 0,0 -0.01,-0.01 0,0 0,0 -0.01,0l0 -0.02c0.01,0 0.02,0 0.03,0 0.01,0.01 0.01,0.01 0.02,0.01 0.01,0 0.02,0 0.03,0 0,-0.01 0.01,-0.01 0.01,-0.01 0,0 0.01,-0.01 0.01,-0.01 0,0 0,-0.01 0,-0.01 0,-0.01 0,-0.01 0,-0.01 0,-0.01 0,-0.01 -0.01,-0.01 0,0 -0.01,-0.01 -0.01,-0.01 -0.01,0 -0.01,0 -0.02,0 0,0 -0.01,0 -0.02,0 0,-0.01 -0.01,-0.01 -0.02,-0.01 0,-0.01 -0.01,-0.01 -0.01,-0.02 0,0 0,-0.01 0,-0.02 0,-0.01 0,-0.02 0,-0.02 0,-0.01 0.01,-0.01 0.02,-0.02 0,0 0.01,-0.01 0.02,-0.01 0.01,0 0.01,0 0.02,0 0.01,0 0.02,0 0.03,0 0.01,0 0.02,0 0.03,0.01l0 0.02c-0.01,0 -0.02,0 -0.03,0 0,-0.01 -0.01,-0.01 -0.02,-0.01 -0.01,0 -0.01,0 -0.02,0 0,0.01 -0.01,0.01 -0.01,0.01 -0.01,0 -0.01,0.01 -0.01,0.01 0,0 0,0 0,0.01l0 0zm0.29 0.13c-0.01,0 -0.01,0 -0.02,0 0,0 -0.01,0 -0.02,0 -0.01,0 -0.02,0 -0.02,0 -0.01,0 -0.02,-0.01 -0.02,-0.01 -0.01,-0.01 -0.01,-0.01 -0.01,-0.02 -0.01,0 -0.01,-0.01 -0.01,-0.02l0 -0.1 -0.03 0 0 -0.03 0.03 0 0 -0.04 0.04 0 0 0.04 0.05 0 0 0.03 -0.05 0 0 0.1c0,0 0,0.01 0,0.01 0,0 0,0.01 0,0.01 0.01,0 0.01,0 0.01,0 0.01,0.01 0.01,0.01 0.02,0.01 0,0 0.01,0 0.01,0 0.01,-0.01 0.01,-0.01 0.02,-0.01l0 0.03 0 0zm0.15 -0.16c-0.01,0 -0.01,0 -0.02,0.01 0,0 -0.01,0 -0.01,0.01 -0.01,0 -0.01,0.01 -0.02,0.01 0,0.01 0,0.01 0,0.02l0.1 0c0,-0.01 0,-0.01 0,-0.02 -0.01,0 -0.01,-0.01 -0.01,-0.01 -0.01,-0.01 -0.01,-0.01 -0.02,-0.01 0,-0.01 -0.01,-0.01 -0.02,-0.01zm0.02 0.14c0.01,0 0.02,0 0.03,-0.01 0.01,0 0.02,0 0.02,0l0 0.02c0,0 -0.01,0.01 -0.02,0.01 -0.01,0 -0.02,0 -0.03,0 -0.02,0 -0.03,0 -0.04,0 -0.02,-0.01 -0.03,-0.01 -0.04,-0.02 0,-0.01 -0.01,-0.02 -0.02,-0.03 0,-0.01 0,-0.02 0,-0.04 0,-0.01 0,-0.03 0,-0.04 0.01,-0.01 0.01,-0.02 0.02,-0.03 0.01,-0.01 0.02,-0.01 0.03,-0.02 0.01,0 0.02,0 0.03,0 0.02,0 0.03,0 0.03,0 0.01,0.01 0.02,0.01 0.03,0.02 0.01,0.01 0.01,0.01 0.02,0.03 0,0.01 0,0.02 0,0.03 0,0.01 0,0.01 0,0.01 0,0 0,0 0,0.01l-0.13 0c0,0.01 0,0.02 0,0.02 0.01,0.01 0.01,0.02 0.02,0.02 0,0.01 0.01,0.01 0.02,0.01 0.01,0.01 0.02,0.01 0.03,0.01l0 0zm0.31 0.02l-0.03 0 0 -0.11c0,-0.01 0,-0.02 0,-0.02 0,-0.01 -0.01,-0.01 -0.01,-0.02 0,0 -0.01,0 -0.01,0 -0.01,-0.01 -0.01,-0.01 -0.02,-0.01 -0.01,0 -0.02,0.01 -0.03,0.01 -0.01,0.01 -0.02,0.01 -0.02,0.02l0 0.13 -0.04 0 0 -0.18 0.03 0 0 0.03 0.01 0c0,-0.01 0,-0.01 0.01,-0.01 0,-0.01 0.01,-0.01 0.01,-0.01 0.01,-0.01 0.01,-0.01 0.02,-0.01 0,0 0.01,0 0.02,0 0.01,0 0.02,0 0.03,0.01 0.01,0 0.02,0.01 0.03,0.02l0 0c0.01,-0.01 0.02,-0.02 0.03,-0.02 0.01,-0.01 0.02,-0.01 0.04,-0.01 0,0 0.01,0 0.02,0 0,0 0.01,0.01 0.02,0.01 0,0 0.01,0.01 0.01,0.02 0.01,0.01 0.01,0.02 0.01,0.03l0 0.12 -0.03 0 0 -0.11c0,-0.01 0,-0.02 0,-0.02 -0.01,-0.01 -0.01,-0.01 -0.01,-0.02 -0.01,0 -0.01,0 -0.02,0 0,-0.01 -0.01,-0.01 -0.01,-0.01 -0.01,0 -0.02,0.01 -0.03,0.01 -0.01,0.01 -0.02,0.01 -0.03,0.02l0 0.13 0 0zm0.34 -0.02l0 0c0,0 0,0 -0.01,0.01 0,0 -0.01,0 -0.01,0 -0.01,0.01 -0.01,0.01 -0.02,0.01 0,0 -0.01,0 -0.02,0 -0.01,0 -0.02,0 -0.02,0 -0.01,0 -0.02,-0.01 -0.02,-0.01 -0.01,-0.01 -0.01,-0.01 -0.02,-0.02 0,-0.01 0,-0.02 0,-0.03 0,0 0,-0.01 0,-0.02 0.01,0 0.01,-0.01 0.02,-0.02 0,0 0.01,0 0.02,-0.01 0.01,0 0.02,0 0.03,0 0.01,0 0.02,0 0.03,0 0.01,0 0.01,0.01 0.02,0.01l0 0 0 -0.01c0,-0.01 0,-0.01 0,-0.02 0,0 0,0 0,-0.01 -0.01,0 -0.01,-0.01 -0.02,-0.01 -0.01,0 -0.02,-0.01 -0.03,-0.01 -0.01,0 -0.02,0 -0.03,0.01 -0.01,0 -0.02,0 -0.03,0l0 -0.02c0.01,0 0.01,0 0.02,-0.01 0,0 0.01,0 0.01,0 0.01,0 0.01,0 0.02,0 0,0 0.01,0 0.01,0 0.02,0 0.04,0 0.05,0.01 0.01,0 0.02,0.01 0.03,0.02 0,0.01 0,0.01 0,0.01 0,0.01 0,0.02 0,0.02l0 0.12 -0.02 0 -0.01 -0.02 0 0zm0 -0.06c0,0 -0.01,0 -0.02,0 -0.01,0 -0.02,-0.01 -0.03,-0.01 -0.01,0 -0.02,0.01 -0.03,0.01 -0.01,0.01 -0.01,0.01 -0.01,0.02 0,0.01 0,0.02 0,0.02 0.01,0 0.01,0.01 0.01,0.01 0,0 0.01,0 0.01,0.01 0.01,0 0.01,0 0.02,0 0.01,0 0.01,0 0.02,-0.01 0,0 0.01,0 0.01,0 0.01,0 0.01,-0.01 0.01,-0.01 0.01,0 0.01,0 0.01,0l0 -0.04 0 0zm0.16 -0.05c0,0 0,0.01 0,0.01 0,0 0,0.01 0.01,0.01 0,0 0.01,0 0.01,0 0.01,0 0.01,0.01 0.02,0.01 0,0 0.01,0 0.02,0 0,0 0.01,0.01 0.02,0.01 0,0 0.01,0.01 0.01,0.01 0,0.01 0,0.02 0,0.03 0,0.01 0,0.01 0,0.02 0,0.01 -0.01,0.01 -0.02,0.02 0,0 -0.01,0.01 -0.02,0.01 -0.01,0 -0.02,0 -0.03,0 -0.01,0 -0.02,0 -0.02,0 -0.01,0 -0.02,0 -0.02,0 0,0 -0.01,0 -0.01,-0.01 0,0 -0.01,0 -0.01,0l0 -0.02c0.01,0 0.02,0 0.03,0 0,0.01 0.01,0.01 0.02,0.01 0.01,0 0.02,0 0.02,0 0.01,-0.01 0.01,-0.01 0.02,-0.01 0,0 0.01,-0.01 0.01,-0.01 0,0 0,-0.01 0,-0.01 0,-0.01 0,-0.01 0,-0.01 0,-0.01 -0.01,-0.01 -0.01,-0.01 0,0 -0.01,-0.01 -0.01,-0.01 -0.01,0 -0.01,0 -0.02,0 0,0 -0.01,0 -0.02,0 -0.01,-0.01 -0.01,-0.01 -0.02,-0.01 0,-0.01 -0.01,-0.01 -0.01,-0.02 -0.01,0 -0.01,-0.01 -0.01,-0.02 0,-0.01 0,-0.02 0.01,-0.02 0,-0.01 0.01,-0.01 0.01,-0.02 0.01,0 0.02,-0.01 0.03,-0.01 0,0 0.01,0 0.02,0 0.01,0 0.02,0 0.03,0 0.01,0 0.02,0 0.03,0.01l0 0.02c-0.01,0 -0.02,0 -0.03,0 -0.01,-0.01 -0.01,-0.01 -0.02,-0.01 -0.01,0 -0.02,0 -0.02,0 -0.01,0.01 -0.01,0.01 -0.01,0.01 -0.01,0 -0.01,0.01 -0.01,0.01 0,0 0,0 0,0.01l0 0zm0.34 -0.03c-0.01,0 -0.01,0 -0.02,0.01 -0.01,0 -0.01,0 -0.02,0.01 0,0 -0.01,0.01 -0.01,0.01 0,0.01 0,0.01 0,0.02l0.1 0c0,-0.01 0,-0.01 -0.01,-0.02 0,0 0,-0.01 -0.01,-0.01 0,-0.01 0,-0.01 -0.01,-0.01 -0.01,-0.01 -0.01,-0.01 -0.02,-0.01l0 0zm0.02 0.14c0.01,0 0.02,0 0.03,-0.01 0,0 0.01,0 0.02,0l0 0.02c-0.01,0 -0.01,0.01 -0.02,0.01 -0.01,0 -0.03,0 -0.04,0 -0.01,0 -0.02,0 -0.04,0 -0.01,-0.01 -0.02,-0.01 -0.03,-0.02 -0.01,-0.01 -0.01,-0.02 -0.02,-0.03 0,-0.01 -0.01,-0.02 -0.01,-0.04 0,-0.01 0.01,-0.03 0.01,-0.04 0.01,-0.01 0.01,-0.02 0.02,-0.03 0.01,-0.01 0.02,-0.01 0.03,-0.02 0.01,0 0.02,0 0.03,0 0.01,0 0.02,0 0.03,0 0.01,0.01 0.02,0.01 0.03,0.02 0,0.01 0.01,0.01 0.01,0.03 0.01,0.01 0.01,0.02 0.01,0.03 0,0.01 0,0.01 0,0.01 0,0 0,0 0,0.01l-0.14 0c0,0.01 0.01,0.02 0.01,0.02 0,0.01 0.01,0.02 0.02,0.02 0,0.01 0.01,0.01 0.02,0.01 0.01,0.01 0.02,0.01 0.03,0.01l0 0zm0.15 0.02l0 -0.27 0.04 0 0 0.27 -0.04 0zm0.21 -0.16c0,0 -0.01,0 -0.02,0.01 0,0 -0.01,0 -0.01,0.01 -0.01,0 -0.01,0.01 -0.02,0.01 0,0.01 0,0.01 0,0.02l0.1 0c0,-0.01 0,-0.01 0,-0.02 -0.01,0 -0.01,-0.01 -0.01,-0.01 -0.01,-0.01 -0.01,-0.01 -0.02,-0.01 0,-0.01 -0.01,-0.01 -0.02,-0.01l0 0zm0.02 0.14c0.01,0 0.02,0 0.03,-0.01 0.01,0 0.01,0 0.02,0l0 0.02c0,0 -0.01,0.01 -0.02,0.01 -0.01,0 -0.02,0 -0.04,0 -0.01,0 -0.02,0 -0.03,0 -0.02,-0.01 -0.03,-0.01 -0.04,-0.02 0,-0.01 -0.01,-0.02 -0.02,-0.03 0,-0.01 -0.01,-0.02 -0.01,-0.04 0,-0.01 0.01,-0.03 0.01,-0.04 0.01,-0.01 0.01,-0.02 0.02,-0.03 0.01,-0.01 0.02,-0.01 0.03,-0.02 0.01,0 0.02,0 0.03,0 0.01,0 0.02,0 0.03,0 0.01,0.01 0.02,0.01 0.03,0.02 0.01,0.01 0.01,0.01 0.02,0.03 0,0.01 0,0.02 0,0.03 0,0.01 0,0.01 0,0.01 0,0 0,0 0,0.01l-0.13 0c0,0.01 0,0.02 0,0.02 0.01,0.01 0.01,0.02 0.02,0.02 0,0.01 0.01,0.01 0.02,0.01 0.01,0.01 0.02,0.01 0.03,0.01l0 0zm0.26 0.02c-0.01,0 -0.01,0 -0.02,0 0,0 -0.01,0 -0.02,0 -0.01,0 -0.01,0 -0.02,0 -0.01,0 -0.02,-0.01 -0.02,-0.01 -0.01,-0.01 -0.01,-0.01 -0.01,-0.02 0,0 -0.01,-0.01 -0.01,-0.02l0 -0.1 -0.03 0 0 -0.03 0.03 0 0 -0.04 0.03 0 0 0.04 0.06 0 0 0.03 -0.06 0 0 0.1c0,0 0.01,0.01 0.01,0.01 0,0 0,0.01 0,0.01 0.01,0 0.01,0 0.01,0 0.01,0.01 0.01,0.01 0.02,0.01 0,0 0.01,0 0.01,0 0.01,-0.01 0.01,-0.01 0.02,-0.01l0 0.03 0 0zm0.18 -0.15l0 0c-0.01,0 -0.01,0 -0.02,0 -0.01,0 -0.01,0 -0.02,0 -0.01,0.01 -0.01,0.01 -0.02,0.01 0,0.01 -0.01,0.01 -0.01,0.02l0 0.12 -0.03 0 0 -0.18 0.02 0 0.01 0.03 0 0c0,0 0.01,-0.01 0.01,-0.01 0,-0.01 0.01,-0.01 0.02,-0.01 0,-0.01 0.01,-0.01 0.01,-0.01 0.01,0 0.02,0 0.03,0 0,0 0,0 0,0 0,0 0,0 0,0l0 0.03 0 0zm0.22 0.06c0,-0.01 0,-0.02 -0.01,-0.03 0,-0.01 -0.01,-0.01 -0.01,-0.02 -0.01,-0.01 -0.01,-0.01 -0.02,-0.01 -0.01,-0.01 -0.01,-0.01 -0.02,-0.01 -0.01,0 -0.02,0 -0.03,0.01 0,0 -0.01,0 -0.02,0.01 0,0.01 0,0.01 -0.01,0.02 0,0.01 0,0.02 0,0.03 0,0.01 0,0.02 0,0.03 0.01,0.01 0.01,0.01 0.01,0.02 0.01,0.01 0.02,0.01 0.02,0.01 0.01,0.01 0.02,0.01 0.03,0.01 0.01,0 0.01,0 0.02,-0.01 0.01,0 0.01,0 0.02,-0.01 0,-0.01 0.01,-0.01 0.01,-0.02 0.01,-0.01 0.01,-0.02 0.01,-0.03zm0.03 0c0,0.01 0,0.03 -0.01,0.04 0,0.01 -0.01,0.02 -0.02,0.03 0,0 -0.01,0.01 -0.02,0.02 -0.02,0 -0.03,0 -0.04,0 -0.02,0 -0.03,0 -0.04,0 -0.01,-0.01 -0.02,-0.02 -0.03,-0.02 -0.01,-0.01 -0.01,-0.02 -0.02,-0.03 0,-0.01 -0.01,-0.03 -0.01,-0.04 0,-0.01 0.01,-0.03 0.01,-0.04 0.01,-0.01 0.01,-0.02 0.02,-0.03 0.01,-0.01 0.02,-0.01 0.03,-0.02 0.01,0 0.02,0 0.04,0 0.01,0 0.02,0 0.04,0 0.01,0.01 0.02,0.01 0.02,0.02 0.01,0.01 0.02,0.02 0.02,0.03 0.01,0.01 0.01,0.03 0.01,0.04l0 0zm-0.08 -0.18l0.05 0.06 -0.03 0 -0.03 -0.04 0 0 -0.03 0.04 -0.03 0 0.04 -0.06 0.03 0 0 0zm0.2 0.12l0 0c0,-0.01 0.01,-0.01 0.01,-0.01 0,-0.01 0.01,-0.01 0.01,-0.01 0.01,-0.01 0.02,-0.01 0.02,-0.01 0.01,0 0.02,0 0.02,0 0.01,0 0.02,0 0.03,0 0.01,0 0.01,0.01 0.02,0.01 0,0.01 0.01,0.01 0.01,0.02 0.01,0.01 0.01,0.02 0.01,0.03l0 0.12 -0.03 0 0 -0.11c0,-0.02 -0.01,-0.03 -0.01,-0.04 -0.01,0 -0.02,-0.01 -0.03,-0.01 -0.01,0 -0.02,0.01 -0.03,0.01 -0.01,0.01 -0.02,0.01 -0.03,0.02l0 0.13 -0.03 0 0 -0.18 0.02 0 0.01 0.03 0 0zm0.23 0.15l0 -0.18 0.03 0 0 0.18 -0.03 0zm0 -0.22l0 -0.03 0.03 0 0 0.03 -0.03 0zm0.22 0.04c0.01,0 0.01,0 0.02,0 0.01,0 0.02,0 0.02,0.01l0 0.02c0,0 -0.01,0 -0.02,0 -0.01,-0.01 -0.01,-0.01 -0.02,-0.01 -0.01,0 -0.02,0 -0.02,0.01 -0.01,0 -0.02,0 -0.02,0.01 -0.01,0 -0.02,0.01 -0.02,0.02 0,0.01 -0.01,0.02 -0.01,0.03 0,0.01 0.01,0.02 0.01,0.03 0,0.01 0,0.01 0.01,0.02 0.01,0 0.01,0.01 0.02,0.01 0.01,0 0.02,0.01 0.03,0.01 0.01,0 0.02,0 0.02,-0.01 0.01,0 0.02,0 0.03,0l0 0.02c0,0 -0.01,0 -0.01,0.01 0,0 -0.01,0 -0.01,0 -0.01,0 -0.01,0 -0.02,0 0,0 -0.01,0 -0.01,0 -0.02,0 -0.03,0 -0.04,0 -0.01,-0.01 -0.02,-0.01 -0.03,-0.02 -0.01,-0.01 -0.02,-0.02 -0.02,-0.03 -0.01,-0.01 -0.01,-0.02 -0.01,-0.04 0,-0.01 0,-0.02 0,-0.03 0.01,-0.01 0.01,-0.02 0.02,-0.02 0,-0.01 0.01,-0.02 0.01,-0.02 0.01,-0.01 0.01,-0.01 0.02,-0.01 0.01,-0.01 0.02,-0.01 0.02,-0.01 0.01,0 0.02,0 0.03,0l0 0zm0.27 0.09c0,-0.01 0,-0.02 0,-0.03 0,-0.01 -0.01,-0.01 -0.01,-0.02 -0.01,-0.01 -0.01,-0.01 -0.02,-0.01 -0.01,-0.01 -0.02,-0.01 -0.03,-0.01 0,0 -0.01,0 -0.02,0.01 -0.01,0 -0.01,0 -0.02,0.01 0,0.01 -0.01,0.01 -0.01,0.02 0,0.01 0,0.02 0,0.03 0,0.01 0,0.02 0,0.03 0,0.01 0.01,0.01 0.01,0.02 0.01,0.01 0.01,0.01 0.02,0.01 0.01,0.01 0.02,0.01 0.03,0.01 0,0 0.01,0 0.02,-0.01 0.01,0 0.01,0 0.02,-0.01 0,-0.01 0.01,-0.01 0.01,-0.02 0,-0.01 0,-0.02 0,-0.03zm0.04 0c0,0.01 0,0.03 -0.01,0.04 0,0.01 -0.01,0.02 -0.02,0.03 -0.01,0 -0.01,0.01 -0.03,0.02 -0.01,0 -0.02,0 -0.03,0 -0.02,0 -0.03,0 -0.04,0 -0.01,-0.01 -0.02,-0.02 -0.03,-0.02 -0.01,-0.01 -0.02,-0.02 -0.02,-0.03 -0.01,-0.01 -0.01,-0.03 -0.01,-0.04 0,-0.01 0.01,-0.03 0.01,-0.04 0,-0.01 0.01,-0.02 0.02,-0.03 0.01,-0.01 0.02,-0.01 0.03,-0.02 0.01,0 0.02,0 0.03,0 0.02,0 0.03,0 0.04,0 0.02,0.01 0.03,0.01 0.03,0.02 0.01,0.01 0.02,0.02 0.02,0.03 0.01,0.01 0.01,0.03 0.01,0.04l0 0zm0.11 -0.04c0,0 0,0.01 0,0.01 0,0 0.01,0.01 0.01,0.01 0,0 0.01,0 0.01,0 0.01,0 0.01,0.01 0.02,0.01 0.01,0 0.01,0 0.02,0 0.01,0 0.01,0.01 0.02,0.01 0,0 0.01,0.01 0.01,0.01 0.01,0.01 0.01,0.02 0.01,0.03 0,0.01 0,0.01 -0.01,0.02 0,0.01 -0.01,0.01 -0.01,0.02 -0.01,0 -0.02,0.01 -0.03,0.01 -0.01,0 -0.02,0 -0.03,0 -0.01,0 -0.01,0 -0.02,0 -0.01,0 -0.01,0 -0.02,0 0,0 0,0 -0.01,-0.01 0,0 0,0 -0.01,0l0 -0.02c0.01,0 0.02,0 0.03,0 0.01,0.01 0.02,0.01 0.02,0.01 0.01,0 0.02,0 0.03,0 0,-0.01 0.01,-0.01 0.01,-0.01 0,0 0.01,-0.01 0.01,-0.01 0,0 0,-0.01 0,-0.01 0,-0.01 0,-0.01 0,-0.01 0,-0.01 0,-0.01 -0.01,-0.01 0,0 -0.01,-0.01 -0.01,-0.01 0,0 -0.01,0 -0.01,0 -0.01,0 -0.02,0 -0.03,0 0,-0.01 -0.01,-0.01 -0.01,-0.01 -0.01,-0.01 -0.02,-0.01 -0.02,-0.02 0,0 0,-0.01 0,-0.02 0,-0.01 0,-0.02 0,-0.02 0,-0.01 0.01,-0.01 0.02,-0.02 0,0 0.01,-0.01 0.02,-0.01 0.01,0 0.02,0 0.02,0 0.02,0 0.02,0 0.03,0 0.01,0 0.02,0 0.03,0.01l0 0.02c-0.01,0 -0.02,0 -0.02,0 -0.01,-0.01 -0.02,-0.01 -0.03,-0.01 -0.01,0 -0.01,0 -0.02,0 0,0.01 -0.01,0.01 -0.01,0.01 -0.01,0 -0.01,0.01 -0.01,0.01 0,0 0,0 0,0.01l0 0z"/>
   </g>
  </g>
 </g>
</svg>
